<svg width="56" height="56" viewBox="0 0 56 56" fill="none" xmlns="http://www.w3.org/2000/svg">
<path d="M0 28C0 12.536 12.536 0 28 0C43.464 0 56 12.536 56 28C56 43.464 43.464 56 28 56C12.536 56 0 43.464 0 28Z" fill="black" fill-opacity="0.1"/>
<path d="M25 34H31" stroke="black" stroke-width="1.5" stroke-linecap="round" stroke-linejoin="round"/>
<path d="M26 37H30" stroke="black" stroke-width="1.5" stroke-linecap="round" stroke-linejoin="round"/>
<path d="M24.9998 31C25 29 24.5 28.5 23.4998 27.5C22.4997 26.5 22.0232 25.4869 21.9998 24C21.9519 20.9503 23.9997 19 27.9998 19C32 19 34.0478 20.9503 33.9998 24C33.9765 25.4869 33.4997 26.5 32.4998 27.5C31.5 28.5 31 29 30.9998 31" stroke="black" stroke-width="1.5" stroke-linecap="round" stroke-linejoin="round"/>
</svg>
